<svg width="29" height="28" viewBox="0 0 29 28" fill="none" xmlns="http://www.w3.org/2000/svg">
<path fill-rule="evenodd" clip-rule="evenodd" d="M13.3987 0.455451C13.6908 0.163826 14.087 0 14.5 0C14.913 0 15.3092 0.163826 15.6013 0.455451L24.9474 9.7889L28.0627 12.9C28.3465 13.1934 28.5035 13.5864 28.4999 13.9942C28.4964 14.4021 28.3326 14.7923 28.0438 15.0807C27.755 15.3691 27.3643 15.5327 26.9559 15.5362C26.5474 15.5398 26.154 15.383 25.8602 15.0996L25.4038 14.6438V24.8889C25.4038 25.714 25.0756 26.5053 24.4913 27.0888C23.9071 27.6722 23.1147 28 22.2884 28H17.6154C17.2022 28 16.806 27.8361 16.5139 27.5444C16.2218 27.2527 16.0577 26.857 16.0577 26.4444V21.7777H12.9423V26.4444C12.9423 26.857 12.7782 27.2527 12.4861 27.5444C12.194 27.8361 11.7978 28 11.3846 28H6.71159C5.88534 28 5.09294 27.6722 4.50869 27.0888C3.92445 26.5053 3.59622 25.714 3.59622 24.8889V14.6438L3.13982 15.0996C2.84604 15.383 2.45257 15.5398 2.04415 15.5362C1.63573 15.5327 1.24504 15.3691 0.956235 15.0807C0.667428 14.7923 0.503608 14.4021 0.500059 13.9942C0.49651 13.5864 0.653515 13.1934 0.93726 12.9L4.05262 9.7889L13.3987 0.455451Z" fill="black"/>
</svg>
