<svg width="29" height="28" viewBox="0 0 29 28" fill="none" xmlns="http://www.w3.org/2000/svg">
<path fill-rule="evenodd" clip-rule="evenodd" d="M13.1 5.23462V8.4H11.7C7.2606 8.4 3.5114 11.3512 2.306 15.4H0.5V21H2.306C3.5114 25.0488 7.2606 28 11.7 28C13.5312 28 15.4688 28 17.3 28C21.7394 28 25.4886 25.0488 26.694 21H28.5V15.4H26.694C25.4886 11.3512 21.7394 8.4 17.3 8.4H15.9V5.24299C16.7442 4.75859 17.3126 3.84861 17.3126 2.80701C17.3126 1.25721 16.0554 0 14.507 0C12.9572 0 11.7 1.25721 11.7 2.80701C11.7 3.84301 12.2628 4.74882 13.1 5.23462ZM4.7 18.2C4.7 14.3346 7.8346 11.2 11.7 11.2C13.5312 11.2 15.4688 11.2 17.3 11.2C21.1654 11.2 24.3 14.3346 24.3 18.2C24.3 18.2056 24.3 18.2126 24.3 18.2182C24.3 22.0654 21.1654 25.2 17.3 25.2C15.4688 25.2 13.5312 25.2 11.7 25.2C7.8346 25.2 4.7 22.0654 4.7 18.2ZM17.3 16.8V19.6H20.1V16.8H17.3ZM8.9 16.8V19.6H11.7V16.8H8.9Z" fill="black"/>
</svg>
