<svg width="23" height="28" viewBox="0 0 23 28" fill="none" xmlns="http://www.w3.org/2000/svg">
<path d="M11.5 0C7.53034 0 4.3125 3.1339 4.3125 7C4.3125 10.8661 7.53034 14 11.5 14C15.4697 14 18.6875 10.8661 18.6875 7C18.6875 3.1339 15.4697 0 11.5 0ZM3.05469 16.8C2.24466 16.8 1.4678 17.1133 0.894951 17.6711C0.322107 18.2289 0.000190595 18.9854 0 19.7743V20.3C0 22.9285 1.39581 24.8969 3.53625 26.166C5.64219 27.4141 8.47119 28 11.5 28C14.5288 28 17.3578 27.4141 19.4638 26.166C21.6042 24.8969 23 22.9285 23 20.3V19.7743C22.9998 18.9854 22.6779 18.2289 22.105 17.6711C21.5322 17.1133 20.7553 16.8 19.9453 16.8H3.05469Z" fill="black"/>
</svg>
