<svg width="25" height="18" viewBox="0 0 25 18" fill="none" xmlns="http://www.w3.org/2000/svg">
<path d="M7.11 0.25C5.89638 0.25 4.86825 0.805625 4.16825 1.59488C3.46738 2.38413 3.04038 3.38075 2.7665 4.40625L0.369003 13.368C-0.128872 15.2283 0.983253 17.1602 2.84175 17.659C3.80863 17.9189 4.72738 17.5855 5.35038 17.1077C5.97338 16.6291 6.43188 16.0472 6.90438 15.5747L9.95288 12.521H15.0471L18.0965 15.5747C18.5681 16.0472 19.024 16.6291 19.6479 17.1077C20.2709 17.5855 21.1896 17.9189 22.1565 17.659C23.0517 17.415 23.8142 16.8271 24.2777 16.0233C24.7413 15.2195 24.8683 14.265 24.631 13.368L22.2335 4.40625C21.9596 3.38075 21.5309 2.385 20.8309 1.59488C20.13 0.805625 19.1019 0.25 17.8874 0.25H7.11ZM8.52925 3.77887C9.01663 3.78763 9.40425 4.18487 9.3955 4.66787V5.53062H10.2583C10.3749 5.52863 10.4907 5.55004 10.5989 5.59359C10.7071 5.63714 10.8055 5.70195 10.8882 5.78418C10.9709 5.86641 11.0363 5.9644 11.0805 6.07234C11.1247 6.18028 11.1468 6.29599 11.1455 6.41263C11.1368 6.9 10.7413 7.285 10.2583 7.27887H9.3955V8.14162C9.413 9.3255 7.62888 9.3255 7.6455 8.14162V7.27887H6.78275C5.59975 7.29637 5.59975 5.514 6.78275 5.53062H7.6455V4.66787C7.64363 4.55106 7.66517 4.43504 7.70885 4.32668C7.75253 4.21832 7.81747 4.11981 7.89984 4.03695C7.98221 3.95409 8.08034 3.88856 8.18844 3.84424C8.29654 3.79992 8.41243 3.77769 8.52925 3.77887ZM16.4218 3.77887C17.8611 3.77887 19.0468 4.9645 19.0468 6.40387C19.0468 7.84325 17.8611 9.02888 16.4218 9.02888C14.9824 9.02888 13.7968 7.84325 13.7968 6.40387C13.7968 4.9645 14.9824 3.77887 16.4218 3.77887Z" fill="black"/>
</svg>
