<svg width="42" height="42" viewBox="0 0 42 42" fill="none" xmlns="http://www.w3.org/2000/svg">
<circle cx="21" cy="21" r="21" fill="white"/>
<path d="M11.9155 10.7546H9.04443C8.6624 10.7546 8.35303 10.4453 8.35303 10.0632V8.37103C8.35303 7.989 8.6624 7.67963 9.04443 7.67963H11.9155C12.2976 7.67963 12.6069 7.989 12.6069 8.37103V10.0632C12.6062 10.2464 12.5331 10.4218 12.4036 10.5513C12.2741 10.6808 12.0987 10.7539 11.9155 10.7546Z" fill="#90A4AE"/>
<path d="M9.81567 11.0477H8.87817V8.61017C8.87817 8.35236 9.08911 8.14142 9.34692 8.14142C9.60474 8.14142 9.81567 8.35236 9.81567 8.61017V11.0477Z" fill="#94D1E0"/>
<path d="M15.9282 9.94137H14.6368C14.379 9.94137 14.1704 9.73278 14.1704 9.47497V8.18356C14.1704 7.92575 14.2946 7.81325 14.6368 7.71715C14.979 7.62106 15.6024 7.60934 15.9282 7.71715C16.1954 7.80622 16.3946 7.92575 16.3946 8.18356V9.47497C16.3946 9.73278 16.1837 9.94137 15.9282 9.94137Z" fill="#546E7A"/>
<path d="M6.9375 15.3554H35.0625V29.4507H6.9375V15.3554Z" fill="#212121"/>
<path d="M6.9375 29.132V29.7718C6.9375 30.2359 7.31484 30.6132 7.77891 30.6132H34.2234C34.6875 30.6132 35.0648 30.2359 35.0648 29.7718V29.132H6.9375Z" fill="#B0BEC5"/>
<path d="M16.1579 11.0547H14.4024C13.8305 11.0547 13.3665 10.5906 13.3665 10.0187V9.86638C13.3665 9.29451 13.8305 8.83044 14.4024 8.83044H16.1579C16.7297 8.83044 17.1938 9.29451 17.1938 9.86638V10.0187C17.1941 10.1549 17.1676 10.2897 17.1156 10.4156C17.0637 10.5414 16.9874 10.6557 16.8911 10.752C16.7949 10.8483 16.6805 10.9246 16.5547 10.9765C16.4289 11.0284 16.294 11.055 16.1579 11.0547Z" fill="#90A4AE"/>
<path d="M34.5305 9.55701H7.88672C7.36172 9.55701 6.9375 9.98123 6.9375 10.5062V15.5969H35.0625V10.089C35.0625 9.79373 34.8234 9.55701 34.5305 9.55701Z" fill="#B0BEC5"/>
<path d="M32.3648 14.4977H28.1109C27.9915 14.4977 27.8771 14.4502 27.7927 14.3659C27.7083 14.2815 27.6609 14.167 27.6609 14.0477V11.0828C27.6609 10.8344 27.8625 10.6328 28.1109 10.6328H32.3648C32.6132 10.6328 32.8148 10.8344 32.8148 11.0828V14.05C32.8148 14.2961 32.6156 14.4977 32.3648 14.4977Z" fill="#78909C"/>
<path d="M27.6609 13.9352V11.132C27.6609 10.8555 27.8835 10.6328 28.1601 10.6328H32.3296C32.564 10.6328 32.6601 10.7617 32.6601 10.7617L27.8226 14.3758C27.8226 14.3758 27.6609 14.2773 27.6609 13.9352Z" fill="#757575"/>
<path d="M28.603 11.3383H31.8726V13.7922H28.603V11.3383Z" fill="#212121"/>
<path d="M8.47969 28.7078H7.33594C7.11562 28.7078 6.9375 28.5297 6.9375 28.3094V17.5539C6.9375 17.3336 7.11562 17.1555 7.33594 17.1555H8.47969C8.7 17.1555 8.87812 17.3336 8.87812 17.5539V28.3094C8.87812 28.5297 8.69766 28.7078 8.47969 28.7078ZM34.6594 28.7078H33.5156C33.2953 28.7078 33.1172 28.5297 33.1172 28.3094V17.5539C33.1172 17.3336 33.2953 17.1555 33.5156 17.1555H34.6594C34.8797 17.1555 35.0578 17.3336 35.0578 17.5539V28.3094C35.0578 28.5297 34.8797 28.7078 34.6594 28.7078Z" fill="#616161"/>
<path d="M7.88428 30.2945C7.62646 30.2945 7.41553 30.0836 7.41553 29.8258V29.2539H8.35303V29.8258C8.35303 29.9501 8.30364 30.0693 8.21573 30.1573C8.12783 30.2452 8.0086 30.2945 7.88428 30.2945ZM34.5608 15.2664H33.6233V10.4852C33.6233 10.2274 33.8343 10.0164 34.0921 10.0164C34.3499 10.0164 34.5608 10.2274 34.5608 10.4852V15.2664ZM8.61553 15.2664H7.67803V10.4852C7.67803 10.2274 7.88896 10.0164 8.14678 10.0164C8.40459 10.0164 8.61553 10.2274 8.61553 10.4852V15.2664ZM34.0921 30.2945C33.8343 30.2945 33.6233 30.0836 33.6233 29.8258V29.2539H34.5608V29.8258C34.5608 29.9501 34.5115 30.0693 34.4235 30.1573C34.3356 30.2452 34.2164 30.2945 34.0921 30.2945Z" fill="#B9E4EA"/>
<path d="M20.2453 13.368C20.1937 13.368 20.1492 13.3258 20.1492 13.2719V10.8461C20.1492 10.7945 20.1914 10.75 20.2453 10.75H25.6875C25.739 10.75 25.7835 10.7922 25.7835 10.8461V13.2719C25.7835 13.3234 25.7414 13.368 25.6875 13.368H20.2453Z" fill="#FCEBCD"/>
<path d="M25.664 10.8695V13.2508H20.2687V10.8695H25.664ZM25.6875 10.6328H20.2453C20.1281 10.6328 20.032 10.7289 20.032 10.8461V13.2719C20.032 13.3891 20.1281 13.4852 20.2453 13.4852H25.6875C25.8046 13.4852 25.9007 13.3891 25.9007 13.2719V10.8461C25.9007 10.7289 25.807 10.6328 25.6875 10.6328Z" fill="#78909C"/>
<path d="M21.1267 12.9156C20.9485 12.9156 20.8032 12.7703 20.8032 12.5922V11.5281C20.8032 11.35 20.9485 11.2047 21.1267 11.2047C21.3048 11.2047 21.4501 11.35 21.4501 11.5281V12.5922C21.4501 12.7703 21.3048 12.9156 21.1267 12.9156ZM22.0431 12.9156C21.9071 12.9156 21.797 12.8054 21.797 12.6695V11.4507C21.797 11.3855 21.8229 11.3229 21.8691 11.2767C21.9152 11.2306 21.9778 11.2047 22.0431 11.2047C22.1083 11.2047 22.1709 11.2306 22.2171 11.2767C22.2632 11.3229 22.2892 11.3855 22.2892 11.4507V12.6695C22.2892 12.8054 22.179 12.9156 22.0431 12.9156ZM22.8493 12.9156C22.8015 12.9156 22.7556 12.8966 22.7217 12.8627C22.6879 12.8289 22.6688 12.783 22.6688 12.7351V11.3875C22.6688 11.3396 22.6879 11.2937 22.7217 11.2599C22.7556 11.226 22.8015 11.207 22.8493 11.207C22.8972 11.207 22.9431 11.226 22.9769 11.2599C23.0108 11.2937 23.0298 11.3396 23.0298 11.3875V12.7351C23.0298 12.8336 22.9501 12.9156 22.8493 12.9156Z" fill="white"/>
<path d="M22.9664 29.9336C27.2108 29.9336 30.6516 26.4928 30.6516 22.2484C30.6516 18.0041 27.2108 14.5633 22.9664 14.5633C18.722 14.5633 15.2812 18.0041 15.2812 22.2484C15.2812 26.4928 18.722 29.9336 22.9664 29.9336Z" fill="#616161"/>
<path d="M22.9664 28.9211C26.6516 28.9211 29.639 25.9337 29.639 22.2485C29.639 18.5633 26.6516 15.5758 22.9664 15.5758C19.2812 15.5758 16.2937 18.5633 16.2937 22.2485C16.2937 25.9337 19.2812 28.9211 22.9664 28.9211Z" fill="#E0E0E0"/>
<path d="M22.9665 27.0133C25.5981 27.0133 27.7313 24.88 27.7313 22.2484C27.7313 19.6169 25.5981 17.4836 22.9665 17.4836C20.335 17.4836 18.2017 19.6169 18.2017 22.2484C18.2017 24.88 20.335 27.0133 22.9665 27.0133Z" fill="#2F7889"/>
<path d="M22.9665 28.3796C26.3527 28.3796 29.0977 25.6346 29.0977 22.2484C29.0977 18.8622 26.3527 16.1171 22.9665 16.1171C19.5803 16.1171 16.8352 18.8622 16.8352 22.2484C16.8352 25.6346 19.5803 28.3796 22.9665 28.3796Z" fill="black"/>
<path d="M22.9664 26.9219C25.5475 26.9219 27.6398 24.8295 27.6398 22.2484C27.6398 19.6674 25.5475 17.575 22.9664 17.575C20.3853 17.575 18.293 19.6674 18.293 22.2484C18.293 24.8295 20.3853 26.9219 22.9664 26.9219Z" fill="#2F7889"/>
<path d="M21.8601 18.3273C20.3812 18.6625 19.4976 20.1015 19.4976 21.1632C19.4976 22.0234 20.0671 21.8078 20.2499 21.4961C20.721 20.6968 21.2905 20.0312 22.2726 19.7523C22.6663 19.6398 23.1257 19.3937 23.0788 18.9343C23.0132 18.2804 22.364 18.2125 21.8601 18.3273Z" fill="#94D1E0"/>
<path opacity="0.25" d="M22.9663 24.3343C24.1183 24.3343 25.0522 23.4004 25.0522 22.2484C25.0522 21.0964 24.1183 20.1625 22.9663 20.1625C21.8143 20.1625 20.8804 21.0964 20.8804 22.2484C20.8804 23.4004 21.8143 24.3343 22.9663 24.3343Z" fill="black"/>
</svg>
