<svg width="17" height="18" viewBox="0 0 17 18" fill="none" xmlns="http://www.w3.org/2000/svg">
<path d="M10.8283 2.73267L10.1717 3.3893L4.13601 9.4243C3.7273 9.83371 3.5226 10.0384 3.34693 10.2637C3.13946 10.5295 2.96157 10.8171 2.81639 11.1215C2.69385 11.3793 2.60247 11.6541 2.41972 12.2024L1.6448 14.5264L1.45497 15.0945C1.41057 15.2269 1.40398 15.3691 1.43595 15.5051C1.46792 15.641 1.53717 15.7654 1.63593 15.8641C1.73469 15.9629 1.85904 16.0321 1.99499 16.0641C2.13095 16.0961 2.27313 16.0895 2.40555 16.0451L2.97364 15.8553L5.29768 15.0803C5.84664 14.8976 6.12076 14.8062 6.3786 14.6837C6.68318 14.5385 6.97076 14.3607 7.23639 14.1531C7.46164 13.9775 7.66635 13.7728 8.07505 13.364L14.1108 7.32834L14.7674 6.67171C15.2897 6.14936 15.5832 5.44091 15.5832 4.70219C15.5832 3.96348 15.2897 3.25502 14.7674 2.73267C14.245 2.21032 13.5366 1.91687 12.7979 1.91687C12.0592 1.91687 11.3507 2.21032 10.8283 2.73267Z" stroke="black" stroke-width="1.5"/>
<path opacity="0.5" d="M10.1717 3.38861C10.1717 3.38861 10.2539 4.78403 11.4849 6.01511C12.716 7.24619 14.1107 7.32765 14.1107 7.32765M2.97361 15.8553L1.64478 14.5264" stroke="black" stroke-width="1.5"/>
</svg>
