<svg width="42" height="42" viewBox="0 0 42 42" fill="none" xmlns="http://www.w3.org/2000/svg">
<path d="M11.9635 12.0783L7.32379 9.10545C7.23025 9.04812 7.15092 8.97034 7.09176 8.87796C7.03259 8.78557 6.99513 8.68098 6.98218 8.57204C6.96924 8.4631 6.98114 8.35264 7.01701 8.24896C7.05287 8.14528 7.11176 8.05107 7.18926 7.97342L8.9316 6.23108C9.26629 5.89639 9.83066 5.96858 10.0702 6.37873L12.9708 11.0939C13.3514 11.7436 12.6066 12.472 11.9635 12.0783ZM7.90785 26.378L2.52004 26.4862C2.41049 26.4886 2.30289 26.5158 2.20535 26.5657C2.1078 26.6156 2.02283 26.687 1.95683 26.7745C1.89083 26.8619 1.84552 26.9632 1.82429 27.0707C1.80306 27.1782 1.80647 27.2891 1.83426 27.3951L2.46098 29.7773C2.58238 30.2367 3.1041 30.4565 3.51754 30.2269L8.27863 27.7364C8.93488 27.3656 8.66254 26.3615 7.90785 26.378ZM20.4225 35.5294L19.2413 40.7761C19.133 41.2322 19.4775 41.6719 19.9468 41.6719H22.411C22.8868 41.6719 23.2313 41.2223 23.1132 40.763L21.8302 35.5162C21.6399 34.7845 20.5997 34.7944 20.4225 35.5294ZM30.0366 12.0783L34.6763 9.10545C35.0766 8.85936 35.1422 8.30483 34.8108 7.97342L33.0685 6.23108C32.9899 6.15286 32.8945 6.09367 32.7896 6.05804C32.6846 6.02242 32.5729 6.01131 32.463 6.02556C32.353 6.03982 32.2478 6.07906 32.1554 6.14028C32.063 6.2015 31.9859 6.28307 31.9299 6.37873L29.0293 11.0939C28.6486 11.7436 29.3935 12.472 30.0366 12.0783ZM34.0922 26.378L39.48 26.4862C39.5896 26.4886 39.6972 26.5158 39.7947 26.5657C39.8923 26.6156 39.9772 26.687 40.0432 26.7745C40.1092 26.8619 40.1546 26.9632 40.1758 27.0707C40.197 27.1782 40.1936 27.2891 40.1658 27.3951L39.5391 29.7773C39.5107 29.8844 39.4583 29.9835 39.3858 30.0673C39.3133 30.151 39.2226 30.217 39.1207 30.2604C39.0188 30.3037 38.9083 30.3233 38.7977 30.3175C38.6872 30.3116 38.5793 30.2807 38.4825 30.2269L33.7214 27.7364C33.0652 27.3656 33.3375 26.3615 34.0922 26.378Z" fill="#FFC107"/>
<path d="M22.3289 2.37234L26.7454 12.4458C26.9116 12.8249 27.1764 13.1525 27.5123 13.3943C27.8482 13.6361 28.2429 13.7834 28.6551 13.8206L39.4143 14.7853C40.6317 14.9625 41.1173 16.4555 40.2346 17.3152L32.13 24.1237C31.4737 24.675 31.1751 25.5413 31.3556 26.378L33.7115 37.4062C33.9182 38.617 32.6484 39.5423 31.559 38.9681L22.1681 33.4688C21.8139 33.2609 21.4106 33.1513 21 33.1513C20.5893 33.1513 20.186 33.2609 19.8318 33.4688L10.4409 38.9648C9.3548 39.5358 8.08168 38.6138 8.2884 37.403L10.6443 26.3747C10.8215 25.538 10.5262 24.6717 9.86996 24.1205L1.76199 17.3184C0.882614 16.462 1.36824 14.9658 2.5823 14.7886L13.3415 13.8239C13.7537 13.7866 14.1484 13.6394 14.4843 13.3976C14.8202 13.1557 15.0851 12.8282 15.2512 12.4491L19.6678 2.37563C20.2157 1.27313 21.7842 1.27313 22.3289 2.37234Z" fill="#FDD835"/>
<path d="M22.0074 13.0495L21.2593 5.62731C21.2298 5.21388 21.1445 4.50513 21.8073 4.50513C22.3323 4.50513 22.6178 5.59778 22.6178 5.59778L24.8621 11.5565C25.7087 13.8239 25.3609 14.6015 24.5438 15.0609C23.6054 15.5859 22.2207 15.1758 22.0074 13.0495Z" fill="#FFFF8D"/>
<path d="M31.2638 23.4642L37.7017 18.4406C38.0199 18.1749 38.5942 17.7516 38.1348 17.2692C37.7706 16.8886 36.7862 17.4366 36.7862 17.4366L31.1523 19.6383C29.4723 20.2191 28.3567 21.0788 28.2582 22.1616C28.1302 23.6053 29.4263 24.7177 31.2638 23.4642Z" fill="#F4B400"/>
</svg>
