<svg width="42" height="42" viewBox="0 0 42 42" fill="none" xmlns="http://www.w3.org/2000/svg">
<path d="M0 30.8438H42V42H0V30.8438Z" fill="#42ADE2"/>
<path d="M0 34.3875C0 34.3875 2.3625 34.4531 4.92188 35.4375C7.21875 36.3562 11.1562 37.8 13.125 37.8C13.5844 37.8 14.7 37.4719 14.7 37.4719C14.7 37.4719 20.6719 39.1781 22.9688 39.0469C23.5594 39.0469 24.7406 38.4562 24.7406 38.4562C24.7406 38.4562 25.4625 38.5219 25.6594 38.4562C26.3812 38.325 27.1688 37.7344 27.825 37.6031C28.4156 37.4719 29.7938 37.5375 30.3188 37.4062C30.9094 37.275 32.025 36.4875 32.025 36.4875C32.025 36.4875 33.6 36.4875 34.125 36.4219C34.65 36.3562 35.9625 36.0937 35.9625 36.0937C35.9625 36.0937 37.6688 36.2906 38.2594 36.2906C39.1781 36.2906 41.9344 35.8969 41.9344 35.8969V30.8438H0V34.3875Z" fill="#2B95BF"/>
<path d="M0 18.5719C0 18.5719 2.3625 18.375 4.92188 15.0281C7.21875 12.0094 11.1562 6.89063 13.125 6.82501C13.5844 6.82501 14.7 8.07188 14.7 8.07188C14.7 8.07188 20.6719 2.23126 22.9031 2.62501C23.4938 2.75626 24.675 4.72501 24.675 4.72501C24.675 4.72501 25.3969 4.59376 25.5938 4.72501C26.3156 5.11876 27.1031 7.15313 27.7594 7.61251C28.35 8.00626 29.7281 7.80938 30.2531 8.33438C30.8437 8.85938 31.9594 11.4188 31.9594 11.4188C31.9594 11.4188 33.5344 11.4844 34.0594 11.6813C34.5844 11.8781 35.8969 12.9281 35.8969 12.9281C35.8969 12.9281 37.6031 12.2719 38.1938 12.3375C39.1125 12.4031 41.8687 13.7156 41.8687 13.7156V30.8438H0V18.5719Z" fill="#77994F"/>
<path d="M36.9469 21.2625L32.0906 11.3531C33.4688 14.8312 32.7469 20.475 36.9469 21.2625ZM36.0281 12.8625C36.0281 12.8625 36.6187 16.7343 39.7031 17.7843L36.0281 12.8625ZM12.4031 30.8437L10.5 23.8875L12.9281 24.8718L11.025 19.8843H14.0437L12.4688 14.7L14.4375 13.9125L15.75 11.4187L14.6344 8.07184L18.5719 15.75L24.4781 23.4937L29.2687 28.0875L34.1906 29.3343L36.9469 30.8437H12.4031Z" fill="#8BCE4A"/>
<path d="M24.7407 4.72498L25.3313 9.84373L26.972 13.125H25.8563L29.5313 18.2437L27.1032 17.1937L29.0063 22.7062L32.6813 25.4625L31.3032 26.5125L35.4376 28.6781L37.997 30.8437H42.0001V29.0062L37.6032 26.775L36.5532 25.725L35.7657 26.5125L32.0907 20.1469L28.4157 11.6812L26.9063 9.38435L24.7407 4.72498Z" fill="#8BCE4A"/>
<path d="M27.6938 30.8438H0V26.5125L27.6938 30.8438Z" fill="#DBF763"/>
<path d="M27.6938 30.8438H0V32.8781L27.6938 30.8438Z" fill="#1D8299"/>
<path d="M3.2813 32.0906C4.39692 31.8938 5.31567 32.6813 6.4313 32.0906C7.67817 31.5 8.5313 32.3531 9.71255 32.55C8.59692 32.7469 7.67817 31.9594 6.56255 32.55C5.31567 33.1406 4.46255 32.3531 3.2813 32.0906ZM34.5188 34.65C35.6344 34.4531 36.5532 35.2406 37.6688 34.65C38.9157 34.0594 39.7688 34.9125 40.9501 35.1094C39.8344 35.3063 38.9157 34.5188 37.8 35.1094C36.5532 35.7 35.7001 34.9125 34.5188 34.65ZM10.0407 34.65C11.0907 34.4531 11.9438 34.9125 12.9938 35.0438C14.175 35.175 15.0938 34.7813 16.2094 34.4531C18.2438 33.7313 19.7532 35.1094 21.6563 35.5031C20.6063 35.7 19.7532 35.2406 18.7032 35.1094C17.5219 34.9781 16.6032 35.3719 15.4875 35.7C13.4532 36.4219 11.9438 35.0438 10.0407 34.65ZM22.9032 37.6031C23.9532 37.4063 24.8063 37.8656 25.8563 37.9969C27.0375 38.1281 27.9563 37.7344 29.0719 37.4063C31.1063 36.6844 32.6157 38.0625 34.5188 38.4563C33.4688 38.7188 32.6157 38.1938 31.5657 38.0625C30.3844 37.9313 29.4657 38.325 28.35 38.6531C26.3157 39.375 24.8063 37.9969 22.9032 37.6031ZM25.3313 32.025C26.9063 31.8281 28.2844 32.9438 29.8594 32.1563C31.6313 31.3688 32.8782 32.4844 34.5188 32.7469C32.9438 32.9438 31.5657 31.8281 29.9907 32.6156C28.2844 33.4031 27.0375 32.2219 25.3313 32.025ZM31.5657 40.0969C33.1407 39.9 34.5188 41.0156 36.0938 40.2281C37.8657 39.4406 39.1125 40.5563 40.7532 40.8188C39.1782 41.0156 37.8 39.9 36.2251 40.6875C34.5188 41.475 33.2719 40.2938 31.5657 40.0969ZM2.36255 39.5719C3.93755 39.375 5.31567 40.4906 6.89067 39.7031C8.59692 38.9156 9.90942 40.0313 11.55 40.2938C9.97505 40.4906 8.59692 39.375 7.02192 40.1625C5.31567 40.95 4.0688 39.8344 2.36255 39.5719Z" fill="#B4D7EE"/>
</svg>
