<svg width="14" height="8" viewBox="0 0 14 8" fill="none" xmlns="http://www.w3.org/2000/svg">
<path fill-rule="evenodd" clip-rule="evenodd" d="M7.70706 7.14124C7.51954 7.32195 7.26523 7.42347 7.00006 7.42347C6.7349 7.42347 6.48059 7.32195 6.29306 7.14124L0.636064 1.68809C0.540553 1.59917 0.464371 1.4928 0.411962 1.3752C0.359552 1.25759 0.331967 1.1311 0.330813 1.0031C0.329659 0.875108 0.354961 0.748174 0.405242 0.629706C0.455523 0.511238 0.529777 0.403609 0.62367 0.3131C0.717563 0.222591 0.829213 0.151014 0.952109 0.102545C1.07501 0.0540756 1.20669 0.0296859 1.33947 0.0307981C1.47224 0.0319104 1.60347 0.0585025 1.72547 0.109023C1.84747 0.159543 1.95782 0.23298 2.05006 0.325048L7.00006 5.09667L11.9501 0.325048C12.1387 0.149454 12.3913 0.0522924 12.6535 0.0544887C12.9157 0.056685 13.1665 0.158064 13.3519 0.336791C13.5373 0.515517 13.6425 0.757292 13.6447 1.01004C13.647 1.26279 13.5462 1.50629 13.3641 1.68809L7.70706 7.14124Z" fill="white"/>
</svg>
