<svg width="14" height="9" viewBox="0 0 14 9" fill="none" xmlns="http://www.w3.org/2000/svg">
<path fill-rule="evenodd" clip-rule="evenodd" d="M6.29294 0.994138C6.48046 0.813423 6.73477 0.711903 6.99994 0.711903C7.2651 0.711903 7.51941 0.813423 7.70694 0.994138L13.3639 6.44728C13.4594 6.5362 13.5356 6.64257 13.588 6.76018C13.6404 6.87779 13.668 7.00428 13.6692 7.13227C13.6703 7.26027 13.645 7.3872 13.5948 7.50567C13.5445 7.62414 13.4702 7.73177 13.3763 7.82228C13.2824 7.91279 13.1708 7.98436 13.0479 8.03283C12.925 8.0813 12.7933 8.10569 12.6605 8.10458C12.5278 8.10347 12.3965 8.07687 12.2745 8.02635C12.1525 7.97583 12.0422 7.9024 11.9499 7.81033L6.99994 3.03871L2.04994 7.81033C1.86133 7.98592 1.60873 8.08308 1.34653 8.08089C1.08434 8.07869 0.833526 7.97731 0.648118 7.79859C0.46271 7.61986 0.357541 7.37808 0.355262 7.12534C0.352984 6.87259 0.453778 6.62909 0.635936 6.44728L6.29294 0.994138Z" fill="white"/>
</svg>
