<svg width="18" height="22" viewBox="0 0 18 22" fill="none" xmlns="http://www.w3.org/2000/svg">
<path d="M15.222 16C16.617 17.988 17.284 19.047 16.887 19.9C16.847 19.9853 16.8003 20.0677 16.747 20.147C16.172 21 14.687 21 11.717 21H6.28299C3.31299 21 1.82899 21 1.25399 20.147C1.20153 20.0681 1.15475 19.9855 1.11399 19.9C0.716991 19.048 1.38399 17.988 2.77899 16M11.5 8C11.5 8.66304 11.2366 9.29893 10.7678 9.76777C10.2989 10.2366 9.66303 10.5 8.99999 10.5C8.33695 10.5 7.70107 10.2366 7.23222 9.76777C6.76338 9.29893 6.49999 8.66304 6.49999 8C6.49999 7.33696 6.76338 6.70107 7.23222 6.23223C7.70107 5.76339 8.33695 5.5 8.99999 5.5C9.66303 5.5 10.2989 5.76339 10.7678 6.23223C11.2366 6.70107 11.5 7.33696 11.5 8Z" stroke="#0074C6" stroke-width="1.5" stroke-linecap="round" stroke-linejoin="round"/>
<path d="M10.257 16.494C9.91922 16.819 9.46871 17.0005 8.99999 17.0005C8.53127 17.0005 8.08076 16.819 7.74299 16.494C4.65399 13.501 0.514992 10.158 2.53299 5.304C3.62599 2.679 6.24599 1 8.99999 1C11.754 1 14.375 2.68 15.467 5.304C17.483 10.151 13.354 13.511 10.257 16.494Z" stroke="#0074C6" stroke-width="1.5" stroke-linecap="round" stroke-linejoin="round"/>
</svg>
