<svg width="21" height="21" viewBox="0 0 21 21" fill="none" xmlns="http://www.w3.org/2000/svg">
<path d="M9.30796 11.692L14.154 6.84598M19.11 3.88998L15.02 17.184C14.653 18.376 14.47 18.972 14.153 19.169C14.018 19.2534 13.8648 19.3043 13.7062 19.3176C13.5475 19.3308 13.388 19.3059 13.241 19.245C12.897 19.102 12.617 18.545 12.059 17.429L9.46896 12.247C9.41543 12.1272 9.35082 12.0127 9.27596 11.905C9.22392 11.8372 9.16343 11.7764 9.09596 11.724C8.99166 11.6518 8.88085 11.5895 8.76496 11.538L3.57196 8.93998C2.45696 8.38198 1.89896 8.10298 1.75596 7.75898C1.69496 7.61175 1.67004 7.45208 1.68326 7.29326C1.69648 7.13445 1.74746 6.98109 1.83196 6.84598C2.02896 6.52998 2.62496 6.34598 3.81696 5.97898L17.112 1.88898C18.049 1.59998 18.517 1.45598 18.834 1.57298C18.9701 1.62298 19.0938 1.70201 19.1964 1.80458C19.2989 1.90715 19.378 2.03081 19.428 2.16698C19.544 2.48298 19.4 2.95098 19.112 3.88698L19.11 3.88998Z" stroke="#2995E1" stroke-width="1.5" stroke-linecap="round" stroke-linejoin="round"/>
</svg>
