<svg width="25" height="25" viewBox="0 0 25 25" fill="none" xmlns="http://www.w3.org/2000/svg">
<path d="M23.5976 2.44726C23.5976 2.44726 23.5117 2.28906 23.1504 2.35351C22.7519 2.42382 21.8984 3.07031 21.6269 4.66601C21.3555 6.26171 21.0879 11.1934 21.2734 11.5156C21.6152 12.1152 22.3164 12.5937 22.332 12.9316C22.3437 13.1855 22.2656 19.0566 22.2109 19.4766C22.1562 19.8945 21.8555 21.0371 21.8164 21.3281C21.7793 21.6133 21.9473 21.8359 22.125 21.8516C22.416 21.8789 23.291 21.8867 23.291 21.8867L23.5976 2.44726ZM4.22655 9.56054C4.22655 9.56054 4.13866 5.63671 4.13085 5.45312C4.12304 5.30273 4.03319 5.10156 3.80077 5.12304C3.66601 5.13671 3.62109 5.2832 3.62109 5.42187C3.62109 5.66211 3.5957 8.68945 3.5996 8.91601C3.60351 9.24414 3.23046 9.17187 3.23827 8.93164C3.24609 8.6914 3.23046 5.60742 3.21874 5.39843C3.20898 5.24023 3.1289 5.1289 2.99804 5.1289C2.86913 5.1289 2.76171 5.2207 2.74023 5.39062C2.6914 5.75195 2.70312 8.73437 2.6953 8.95312C2.68554 9.22265 2.36327 9.21289 2.36327 8.92382C2.36327 8.63476 2.35546 5.62109 2.35546 5.38086C2.35546 5.2539 2.31445 5.09961 2.14257 5.10742C1.97655 5.11523 1.92577 5.25586 1.91796 5.36132C1.90234 5.58593 1.7871 8.67578 1.77734 8.87695C1.7578 9.19336 1.43163 9.20507 1.43163 8.86132C1.43163 8.51562 1.51171 5.65625 1.51952 5.41601C1.52538 5.26562 1.46679 5.09375 1.31054 5.10156C1.15429 5.10937 1.06445 5.18359 1.0039 5.42382C0.941398 5.67578 0.874992 7.13671 0.806633 7.98046C0.771476 8.42187 0.564445 10.3008 0.787101 10.7949C1.10937 11.5059 1.74023 11.6348 1.74023 11.6348C1.74023 11.6348 1.6289 18.6074 1.5664 19.0644C1.47655 19.7246 1.10546 20.666 1.14452 21.1465C1.16601 21.4121 1.33398 21.5625 1.61132 21.5762C1.88866 21.5898 2.44335 21.6621 2.5996 21.6191C2.66796 21.6016 2.6953 17.2852 2.6953 17.2852L2.76366 10.5039L4.22655 9.56054Z" fill="#9C9C9C"/>
<path d="M1.19533 9.9668L4.21486 10.3281C4.21486 10.3281 4.20704 10.8965 3.959 11.2129C3.6465 11.6094 3.28517 11.6543 3.28517 11.6543C3.28517 11.6543 3.24415 18.8672 3.30861 19.3711C3.37501 19.873 3.80079 21.1055 3.66408 21.3691C3.54298 21.6016 3.24806 21.6602 2.60939 21.6387C1.93751 21.6172 1.74611 21.6328 1.72072 21.1777C1.69533 20.7227 2.10353 19.8867 2.12306 19.3066C2.14259 18.7266 2.21486 11.3555 2.21486 11.3555C2.21486 11.3555 1.48439 11.2695 1.2129 10.6445C1.00392 10.1563 1.19533 9.9668 1.19533 9.9668ZM23.1289 12.1484L22.1465 11.9355C22.1465 11.9355 22.8067 12.4902 22.8184 12.918C22.832 13.3457 22.8555 19.3848 22.791 19.748C22.7266 20.1113 22.209 21.498 22.4453 21.748C22.6074 21.918 23.1406 21.8828 23.4375 21.8828C23.7344 21.8828 23.9805 21.8691 24.1113 21.6895C24.2402 21.5078 24.1817 21.0234 24.1133 20.6602C24.0352 20.2383 23.9434 19.8574 23.9434 19.6719C23.9434 19.3359 23.7227 11.5039 23.7227 11.5039L23.1289 12.1484Z" fill="#C8C8C8"/>
<path d="M23.4941 2.40821C23.2226 2.41602 22.5703 2.70313 22.2226 3.96485C21.9512 4.94922 21.8867 6.13086 21.8203 8.22657C21.7402 10.7481 21.8457 11.541 21.9238 11.6055C22.0019 11.6699 23.2187 12.1758 23.2187 12.1758L23.7226 11.502C23.7226 11.502 23.6445 3.33399 23.6445 2.99805C23.6445 2.66212 23.6934 2.40235 23.4941 2.40821ZM1.11132 9.58008C1.11132 9.58008 1.10351 10.1621 1.11132 10.2168C1.11913 10.2715 2.3496 10.375 2.83398 10.3828C3.31835 10.3906 4.21874 10.334 4.21874 10.334C4.21874 10.334 4.23437 10.1387 4.23437 9.91407C4.23437 9.71876 4.22851 9.55665 4.22851 9.55665L1.11132 9.58008Z" fill="#E0E0E0"/>
<path d="M1.3887 10.7656C1.77932 10.8574 2.62893 10.498 2.50393 10.3574C2.36916 10.2051 1.12698 10.082 1.11135 10.1992C1.09573 10.3145 1.18166 10.7168 1.3887 10.7656ZM3.23635 21.123C3.33791 20.9355 3.25979 20.3711 3.21291 20.0742C3.16604 19.7773 3.12502 19.5469 2.99807 19.5645C2.8926 19.5801 2.8926 19.6973 2.8926 19.9453C2.8926 20.1914 2.91213 20.5918 2.81838 20.6816C2.72463 20.7715 2.38284 20.9629 2.41799 21.1484C2.45315 21.332 2.69534 21.3242 2.87307 21.3164C2.9844 21.3105 3.15432 21.2754 3.23635 21.123ZM23.6563 20.3164C23.541 20.3086 23.5332 20.5117 23.5332 20.7285C23.5332 20.9434 23.4688 21.1035 23.3731 21.168C23.2774 21.2324 23.0254 21.3672 23.041 21.4922C23.0567 21.6152 23.1817 21.6445 23.5371 21.6289C23.8926 21.6133 23.8848 21.3613 23.8731 21.1055C23.8614 20.8496 23.8242 20.3281 23.6563 20.3164ZM21.9219 11.5371C21.8262 11.5781 22.1192 11.9414 22.4512 12.2266C22.7949 12.5215 22.9395 12.6133 23.291 12.5937C23.6426 12.5742 23.8223 11.6191 23.6035 11.5352C23.3828 11.4512 23.3203 11.8008 23.0352 11.8496C22.752 11.9004 22.0977 11.4609 21.9219 11.5371Z" fill="#FDFDFD"/>
<path d="M5.27147 9.86719L19.9336 9.37891C19.9336 9.37891 22.2832 13.6797 19.1133 18.0156C16.0176 22.252 9.51171 21.7637 6.61717 18.291C3.37303 14.3965 5.27147 9.86719 5.27147 9.86719Z" fill="#D4D4D4"/>
<path d="M12.4902 4.66601C7.81056 4.69922 5.01173 7.91015 4.94337 12.1445C4.87501 16.4141 8.15236 20.373 12.8652 20.373C17.7832 20.373 20.5488 16.3789 20.582 12.1777C20.6133 8.45312 17.3379 4.63086 12.4902 4.66601Z" fill="#F6F6F6"/>
<path d="M7.20117 12.2734L7.64062 11.0371C7.64062 11.0371 8.8457 7.45117 12.6641 7.4707C16.2227 7.49023 17.541 10.8691 17.541 10.8691L17.9453 12.1797L18.1602 11.4414L17.6523 9.67969L15.9336 7.68164L13.0371 6.7832L10.6191 7.12305L8.64063 8.37891L7.32227 10.418L7.20117 12.2734Z" fill="#D5D5D5"/>
<path d="M12.6289 18.0586C9.50197 18.0586 7.09767 15.7422 6.88478 12.502C6.78322 10.957 7.32033 9.47852 8.39845 8.3418C9.49416 7.18165 11.0332 6.52345 12.6289 6.54102C14.3067 6.55665 15.7481 7.16212 16.8008 8.29102C17.875 9.44337 18.4336 11.0293 18.334 12.6387C18.1445 15.7129 15.8047 17.9902 12.7695 18.0586C12.7207 18.0566 12.6738 18.0586 12.6289 18.0586ZM12.5762 7.02735C11.1367 7.02735 9.74416 7.62696 8.75197 8.67579C7.76955 9.71485 7.27931 11.0625 7.37111 12.4688C7.56838 15.4863 9.82814 17.6289 12.7559 17.5664C15.5313 17.5059 17.6699 15.4199 17.8438 12.6055C17.9336 11.1504 17.4082 9.66016 16.4414 8.61915C15.4824 7.58985 14.1621 7.03907 12.6231 7.0254C12.6074 7.02735 12.5918 7.02735 12.5762 7.02735Z" fill="white"/>
</svg>
