<svg width="17" height="16" viewBox="0 0 17 16" fill="none" xmlns="http://www.w3.org/2000/svg">
<path d="M10.8283 1.73267L10.1717 2.3893L4.13601 8.4243C3.7273 8.83371 3.5226 9.03842 3.34693 9.26367C3.13946 9.52949 2.96157 9.81712 2.81639 10.1215C2.69385 10.3793 2.60247 10.6541 2.41972 11.2024L1.6448 13.5264L1.45497 14.0945C1.41057 14.2269 1.40398 14.3691 1.43595 14.5051C1.46792 14.641 1.53717 14.7654 1.63593 14.8641C1.73469 14.9629 1.85904 15.0321 1.99499 15.0641C2.13095 15.0961 2.27313 15.0895 2.40555 15.0451L2.97364 14.8553L5.29768 14.0803C5.84664 13.8976 6.12076 13.8062 6.3786 13.6837C6.68318 13.5385 6.97076 13.3607 7.23639 13.1531C7.46164 12.9775 7.66635 12.7728 8.07505 12.364L14.1108 6.32834L14.7674 5.67171C15.2897 5.14936 15.5832 4.44091 15.5832 3.70219C15.5832 2.96348 15.2897 2.25502 14.7674 1.73267C14.245 1.21032 13.5366 0.91687 12.7979 0.91687C12.0592 0.91687 11.3507 1.21032 10.8283 1.73267Z" stroke="black" stroke-width="1.5"/>
<path opacity="0.5" d="M10.1717 2.38855C10.1717 2.38855 10.2539 3.78397 11.4849 5.01505C12.716 6.24613 14.1107 6.32759 14.1107 6.32759M2.97361 14.8552L1.64478 13.5264" stroke="black" stroke-width="1.5"/>
</svg>
