<svg width="26" height="26" viewBox="0 0 26 26" fill="none" xmlns="http://www.w3.org/2000/svg">
<path d="M6.5 21.6666V10.8333H23.8333V21.6666C23.8333 22.8583 22.8583 23.8333 21.6667 23.8333H8.66667C7.475 23.8333 6.5 22.8583 6.5 21.6666Z" fill="#CFD8DC"/>
<path d="M23.8333 8.66667V11.9167H6.5V8.66667C6.5 7.475 7.475 6.5 8.66667 6.5H21.6667C22.8583 6.5 23.8333 7.475 23.8333 8.66667Z" fill="#78909C"/>
<path d="M20.0416 10.2917C20.9391 10.2917 21.6666 9.56415 21.6666 8.66669C21.6666 7.76922 20.9391 7.04169 20.0416 7.04169C19.1442 7.04169 18.4166 7.76922 18.4166 8.66669C18.4166 9.56415 19.1442 10.2917 20.0416 10.2917Z" fill="#37474F"/>
<path d="M10.8333 10.2917C11.7308 10.2917 12.4583 9.56415 12.4583 8.66669C12.4583 7.76922 11.7308 7.04169 10.8333 7.04169C9.93585 7.04169 9.20831 7.76922 9.20831 8.66669C9.20831 9.56415 9.93585 10.2917 10.8333 10.2917Z" fill="#37474F"/>
<path d="M20.0417 5.41669C19.4458 5.41669 18.9583 5.90419 18.9583 6.50002V8.66669C18.9583 9.26252 19.4458 9.75002 20.0417 9.75002C20.6375 9.75002 21.125 9.26252 21.125 8.66669V6.50002C21.125 5.90419 20.6375 5.41669 20.0417 5.41669ZM10.8333 5.41669C10.2375 5.41669 9.75 5.90419 9.75 6.50002V8.66669C9.75 9.26252 10.2375 9.75002 10.8333 9.75002C11.4292 9.75002 11.9167 9.26252 11.9167 8.66669V6.50002C11.9167 5.90419 11.4292 5.41669 10.8333 5.41669Z" fill="#B0BEC5"/>
<path d="M17.3333 18.4167H19.5V20.5834H17.3333V18.4167ZM14.0833 18.4167H16.25V20.5834H14.0833V18.4167ZM10.8333 18.4167H13V20.5834H10.8333V18.4167ZM17.3333 15.1667H19.5V17.3334H17.3333V15.1667ZM14.0833 15.1667H16.25V17.3334H14.0833V15.1667ZM10.8333 15.1667H13V17.3334H10.8333V15.1667Z" fill="#90A4AE"/>
<path d="M8.66669 14.625C12.2565 14.625 15.1667 11.7149 15.1667 8.125C15.1667 4.53515 12.2565 1.625 8.66669 1.625C5.07684 1.625 2.16669 4.53515 2.16669 8.125C2.16669 11.7149 5.07684 14.625 8.66669 14.625Z" fill="#F44336"/>
<path d="M8.66669 13C11.3591 13 13.5417 10.8174 13.5417 8.125C13.5417 5.43261 11.3591 3.25 8.66669 3.25C5.9743 3.25 3.79169 5.43261 3.79169 8.125C3.79169 10.8174 5.9743 13 8.66669 13Z" fill="#EEEEEE"/>
<path d="M8.125 4.33331H9.20833V8.12498H8.125V4.33331Z" fill="black"/>
<path d="M11.1139 9.80418L10.3864 10.5322L8.31836 8.46409L9.04636 7.73663L11.1139 9.80418Z" fill="black"/>
<path d="M8.66669 8.9375C9.11542 8.9375 9.47919 8.57373 9.47919 8.125C9.47919 7.67627 9.11542 7.3125 8.66669 7.3125C8.21796 7.3125 7.85419 7.67627 7.85419 8.125C7.85419 8.57373 8.21796 8.9375 8.66669 8.9375Z" fill="black"/>
</svg>
