<svg width="12" height="8" viewBox="0 0 12 8" fill="none" xmlns="http://www.w3.org/2000/svg">
<path fill-rule="evenodd" clip-rule="evenodd" d="M6.58914 7.08917C6.43287 7.24539 6.22094 7.33316 5.99997 7.33316C5.779 7.33316 5.56708 7.24539 5.41081 7.08917L0.696638 2.375C0.617046 2.29813 0.55356 2.20617 0.509886 2.1045C0.466212 2.00283 0.443224 1.89348 0.442263 1.78284C0.441301 1.67219 0.462386 1.56245 0.504287 1.46004C0.546187 1.35763 0.608066 1.26458 0.68631 1.18634C0.764553 1.10809 0.857595 1.04622 0.96001 1.00432C1.06242 0.962415 1.17216 0.941331 1.28281 0.942292C1.39346 0.943254 1.50281 0.966242 1.60448 1.00992C1.70615 1.05359 1.7981 1.11708 1.87497 1.19667L5.99997 5.32167L10.125 1.19667C10.2821 1.04487 10.4926 0.960874 10.7111 0.962772C10.9296 0.964671 11.1386 1.05231 11.2932 1.20682C11.4477 1.36133 11.5353 1.57034 11.5372 1.78883C11.5391 2.00733 11.4551 2.21783 11.3033 2.375L6.58914 7.08917Z" fill="#606060"/>
</svg>
