<svg width="18" height="17" viewBox="0 0 18 17" fill="none" xmlns="http://www.w3.org/2000/svg">
<path d="M15.875 0.25H2.125C1.76033 0.25 1.41059 0.394866 1.15273 0.652728C0.894866 0.910591 0.75 1.26033 0.75 1.625V15.375C0.75 15.7397 0.894866 16.0894 1.15273 16.3473C1.41059 16.6051 1.76033 16.75 2.125 16.75H15.875C16.2397 16.75 16.5894 16.6051 16.8473 16.3473C17.1051 16.0894 17.25 15.7397 17.25 15.375V1.625C17.25 1.26033 17.1051 0.910591 16.8473 0.652728C16.5894 0.394866 16.2397 0.25 15.875 0.25ZM6.9375 13.3125H3.5C3.31766 13.3125 3.1428 13.2401 3.01386 13.1111C2.88493 12.9822 2.8125 12.8073 2.8125 12.625C2.8125 12.4427 2.88493 12.2678 3.01386 12.1389C3.1428 12.0099 3.31766 11.9375 3.5 11.9375H6.9375C7.11984 11.9375 7.2947 12.0099 7.42364 12.1389C7.55257 12.2678 7.625 12.4427 7.625 12.625C7.625 12.8073 7.55257 12.9822 7.42364 13.1111C7.2947 13.2401 7.11984 13.3125 6.9375 13.3125ZM2.8125 8.5C2.8125 8.31766 2.88493 8.1428 3.01386 8.01386C3.1428 7.88493 3.31766 7.8125 3.5 7.8125H6.25C6.43234 7.8125 6.6072 7.88493 6.73614 8.01386C6.86507 8.1428 6.9375 8.31766 6.9375 8.5C6.9375 8.68234 6.86507 8.85721 6.73614 8.98614C6.6072 9.11507 6.43234 9.1875 6.25 9.1875H3.5C3.31766 9.1875 3.1428 9.11507 3.01386 8.98614C2.88493 8.85721 2.8125 8.68234 2.8125 8.5ZM11.9038 13.4483C11.8561 13.4722 11.8034 13.4846 11.75 13.4846C11.6966 13.4846 11.6439 13.4722 11.5962 13.4483C11.4621 13.3813 8.3125 11.7802 8.3125 9.53125C8.31267 9.12951 8.4408 8.73827 8.67832 8.41426C8.91583 8.09025 9.25038 7.85032 9.63345 7.72927C10.0165 7.60822 10.4282 7.61234 10.8088 7.74104C11.1893 7.86973 11.519 8.1163 11.75 8.445C11.981 8.1163 12.3107 7.86973 12.6912 7.74104C13.0718 7.61234 13.4835 7.60822 13.8665 7.72927C14.2496 7.85032 14.5842 8.09025 14.8217 8.41426C15.0592 8.73827 15.1873 9.12951 15.1875 9.53125C15.1875 11.7802 12.0379 13.3813 11.9038 13.4483ZM14.5 5.0625H3.5C3.31766 5.0625 3.1428 4.99007 3.01386 4.86114C2.88493 4.7322 2.8125 4.55734 2.8125 4.375C2.8125 4.19266 2.88493 4.0178 3.01386 3.88886C3.1428 3.75993 3.31766 3.6875 3.5 3.6875H14.5C14.6823 3.6875 14.8572 3.75993 14.9861 3.88886C15.1151 4.0178 15.1875 4.19266 15.1875 4.375C15.1875 4.55734 15.1151 4.7322 14.9861 4.86114C14.8572 4.99007 14.6823 5.0625 14.5 5.0625Z" fill="#42ADE2"/>
</svg>
