<svg width="20" height="19" viewBox="0 0 20 19" fill="none" xmlns="http://www.w3.org/2000/svg">
<path d="M6.07665 13.5847L7.6909 13.119L17.4103 3.28319C17.487 3.20463 17.5297 3.09906 17.5291 2.98929C17.5286 2.87952 17.485 2.77436 17.4076 2.69652L16.8255 2.10802C16.7879 2.06937 16.7429 2.0386 16.6933 2.01751C16.6437 1.99641 16.5903 1.98542 16.5364 1.98516C16.4825 1.98491 16.429 1.99539 16.3792 2.01602C16.3294 2.03664 16.2841 2.06698 16.2461 2.10527L6.5524 11.9154L6.07665 13.5847ZM17.9777 0.942022L18.5598 1.53144C19.3628 2.34452 19.3701 3.65627 18.5745 4.4611L8.55898 14.5976L5.10865 15.5913C4.89799 15.6502 4.67255 15.6232 4.48179 15.5162C4.29104 15.4091 4.15054 15.2307 4.09115 15.0202C4.04695 14.8688 4.04631 14.7081 4.08931 14.5564L5.09306 11.0364L15.082 0.926439C15.2719 0.735183 15.498 0.583662 15.7472 0.480712C15.9963 0.377761 16.2634 0.325443 16.5329 0.326808C16.8025 0.328173 17.069 0.383195 17.3171 0.488663C17.5652 0.594132 17.7897 0.748852 17.9777 0.942022ZM7.41865 1.99894C7.87331 1.99894 8.24181 2.37202 8.24181 2.83219C8.24254 2.94097 8.22181 3.04882 8.18083 3.14959C8.13984 3.25035 8.07939 3.34205 8.00294 3.41944C7.92649 3.49682 7.83554 3.55838 7.73528 3.60059C7.63502 3.6428 7.52743 3.66484 7.41865 3.66544H4.12598C3.21665 3.66544 2.47965 4.41161 2.47965 5.33102V15.3282C2.47965 16.2485 3.21665 16.9947 4.12598 16.9947H14.004C14.9133 16.9947 15.6512 16.2485 15.6512 15.3282V11.9961C15.6512 11.5359 16.0197 11.1629 16.4744 11.1629C16.9291 11.1629 17.2976 11.5359 17.2976 11.997V15.3282C17.2976 17.1689 15.8226 18.6612 14.004 18.6612H4.12598C2.30731 18.6612 0.833313 17.1689 0.833313 15.3282V5.33102C0.833313 3.49127 2.30731 1.99894 4.12598 1.99894H7.41865Z" fill="#42ADE2"/>
</svg>
