<svg width="16" height="19" viewBox="0 0 16 19" fill="none" xmlns="http://www.w3.org/2000/svg">
<path d="M4 11.885C3.79333 11.885 3.61333 11.8084 3.46 11.655C3.30667 11.5017 3.23 11.3217 3.23 11.115C3.23 10.9084 3.30667 10.7287 3.46 10.576C3.61333 10.4234 3.79333 10.3467 4 10.346C4.20667 10.3454 4.38667 10.422 4.54 10.576C4.69333 10.73 4.77 10.91 4.77 11.116C4.77 11.322 4.69333 11.5017 4.54 11.655C4.38667 11.8084 4.20667 11.885 4 11.885ZM8 11.885C7.79333 11.885 7.61333 11.8084 7.46 11.655C7.30667 11.5017 7.23 11.3217 7.23 11.115C7.23 10.9084 7.30667 10.7287 7.46 10.576C7.61333 10.4234 7.79333 10.3467 8 10.346C8.20667 10.3454 8.38667 10.422 8.54 10.576C8.69333 10.73 8.77 10.91 8.77 11.116C8.77 11.322 8.69333 11.5017 8.54 11.655C8.38667 11.8084 8.20667 11.885 8 11.885ZM12 11.885C11.7933 11.885 11.6133 11.8084 11.46 11.655C11.3067 11.5017 11.23 11.3217 11.23 11.115C11.23 10.9084 11.3067 10.7287 11.46 10.576C11.6133 10.4234 11.7933 10.3467 12 10.346C12.2067 10.3454 12.3867 10.422 12.54 10.576C12.6933 10.73 12.77 10.91 12.77 11.116C12.77 11.322 12.6933 11.5017 12.54 11.655C12.3867 11.8084 12.2067 11.885 12 11.885ZM1.616 19C1.15533 19 0.771 18.846 0.463 18.538C0.155 18.23 0.000666667 17.8457 0 17.385V4.61502C0 4.15502 0.154333 3.77102 0.463 3.46302C0.771667 3.15502 1.156 3.00069 1.616 3.00002H3.385V0.77002H4.462V3.00002H11.616V0.77002H12.616V3.00002H14.385C14.845 3.00002 15.2293 3.15435 15.538 3.46302C15.8467 3.77169 16.0007 4.15602 16 4.61602V17.385C16 17.845 15.846 18.2294 15.538 18.538C15.23 18.8467 14.8453 19.0007 14.384 19H1.616ZM1.616 18H14.385C14.5383 18 14.6793 17.936 14.808 17.808C14.9367 17.68 15.0007 17.5387 15 17.384V8.61602H1V17.385C1 17.5384 1.064 17.6794 1.192 17.808C1.32 17.9367 1.461 18.0007 1.615 18M1 7.61502H15V4.61502C15 4.46169 14.936 4.32069 14.808 4.19202C14.68 4.06335 14.5387 3.99935 14.384 4.00002H1.616C1.462 4.00002 1.32067 4.06402 1.192 4.19202C1.06333 4.32002 0.999333 4.46135 1 4.61602V7.61502Z" fill="black"/>
</svg>
