<svg width="8" height="14" viewBox="0 0 8 14" fill="none" xmlns="http://www.w3.org/2000/svg">
<path fill-rule="evenodd" clip-rule="evenodd" d="M7.15003 6.293C7.33074 6.48053 7.43226 6.73483 7.43226 7C7.43226 7.26516 7.33074 7.51947 7.15003 7.707L1.69688 13.364C1.60796 13.4595 1.50159 13.5357 1.38398 13.5881C1.26638 13.6405 1.13989 13.6681 1.01189 13.6692C0.883897 13.6704 0.756963 13.6451 0.638495 13.5948C0.520027 13.5445 0.412398 13.4703 0.321889 13.3764C0.23138 13.2825 0.159803 13.1708 0.111334 13.048C0.0628647 12.9251 0.0384749 12.7934 0.0395872 12.6606C0.0406994 12.5278 0.0672916 12.3966 0.117812 12.2746C0.168332 12.1526 0.241769 12.0422 0.333837 11.95L5.10546 7L0.333837 2.05C0.158244 1.8614 0.0610814 1.60879 0.0632777 1.3466C0.0654741 1.0844 0.166853 0.833587 0.34558 0.648179C0.524306 0.462771 0.766081 0.357602 1.01883 0.355323C1.27158 0.353045 1.51508 0.453839 1.69688 0.635997L7.15003 6.293Z" fill="#7E7E7E"/>
</svg>
