<svg width="25" height="25" viewBox="0 0 25 25" fill="none" xmlns="http://www.w3.org/2000/svg">
<path d="M12.7012 18.1035C12.7012 18.1035 0.93748 21.6953 0.912089 21.9551C0.886698 22.2149 5.62107 24.3027 13.5332 24.1934C21.0801 24.0899 23.9961 22.1641 24.0469 21.9551C24.0976 21.7461 12.9609 18.0508 12.7012 18.1035Z" fill="#B9CE46"/>
<path d="M12.1602 8.23242L11.3184 7.17383C11.3184 7.17383 9.95898 8.59961 9.5918 8.98828C9.22461 9.37695 8.94141 9.60156 8.76562 9.9668C8.51367 10.4883 7.71484 14.9902 7.71484 14.9902L5.4043 17.3633C5.4043 17.3633 4.96875 17.0918 4.86133 17.1797C4.75391 17.2676 1.21484 21.4863 1.21484 21.4863L0.910156 21.9531C0.910156 21.9531 1.61328 22.1094 1.83008 22.0879C1.93555 22.0781 2.45508 21.959 3.04297 21.8984C3.66211 21.834 4.45312 21.8867 4.54102 21.877C4.64062 21.8672 4.98438 21.7656 4.98438 21.7656L8.05859 19.9316L10.584 19.3047L12.8945 20.3418L17.4277 20.5586L19.9102 16.8457L14.5137 9.69922L12.1602 8.23242Z" fill="#9EA2A3"/>
<path d="M5.57618 19.0957C5.57618 19.0957 5.49219 18.8555 5.42969 18.6777C5.36719 18.5 5.4043 17.3633 5.4043 17.3633C5.4043 17.3633 6.8125 18.1953 6.96875 18.332C7.125 18.4687 8.51954 19.3379 8.51954 19.3379C8.51954 19.3379 9.51368 19.2129 9.85938 19.1914C10.2051 19.1699 10.8027 19.2012 10.8027 19.2012L10.5723 19.5371C10.5723 19.5371 8.32032 20.2695 7.92188 20.3965C7.52344 20.5215 4.97071 21.8203 4.97461 21.7715C4.98243 21.6699 5.63868 20.7305 5.63868 20.7305L5.57618 19.0957Z" fill="#717A7C"/>
<path d="M15.7676 20.207L6.14651 21.7265C6.14651 21.7265 5.68167 22.1386 5.72854 22.248C5.77542 22.3574 7.55081 22.6875 8.16409 22.7656C8.77737 22.8437 12.9707 23.0801 13.4258 23.0488C13.8809 23.0176 18.5313 22.7812 19.1758 22.7031C19.8203 22.625 21.9864 22.4746 22.1289 22.4101C22.4043 22.2851 23.668 21.6035 23.668 21.6035C23.668 21.6035 22.2539 19.373 21.9707 18.8379C21.6875 18.3047 21.2168 17.3457 20.8867 17.0156C20.5567 16.6855 20.3203 16.5449 20.3203 16.5449C20.3203 16.5449 19.875 15.5097 19.3555 14.8496C18.8379 14.1894 18.2227 13.0332 18.0586 12.8691C17.4356 12.248 17.3223 12.2773 17.3223 12.2773L17.7129 16.9843C17.7129 16.9843 16.9903 18.4297 16.7383 18.8222C16.4903 19.2187 15.7676 20.207 15.7676 20.207Z" fill="#717A7C"/>
<path d="M12.3105 5.39451L12.1211 9.22654L14.3496 10.6094C14.3496 10.6094 15.0195 12.3261 15.0508 12.4844C15.082 12.6406 15.0215 13.0644 15.084 13.1738C15.1465 13.2832 16.3008 14.0781 16.3457 14.0801C16.6016 14.0937 17.1309 14.0019 17.0996 13.9551C17.0684 13.9082 17.3105 12.8886 17.3105 12.8886C17.3105 12.8886 15.7793 10.4062 15.4492 9.71482C15.1191 9.02342 13.8789 7.2324 13.7363 6.93357C13.5938 6.63474 12.9199 5.64451 12.7773 5.48826C12.6348 5.33201 12.4062 5.28513 12.3105 5.39451Z" fill="#717A7C"/>
<path d="M13.2852 12.7051C13.2852 12.7051 14.3379 10.9707 14.3691 10.7051C14.4004 10.4395 13.5215 8.82031 13.3008 8.23828C13.0801 7.65625 12.5 6.46289 12.4375 6.30664C12.375 6.15039 12.3125 5.39648 12.3125 5.39648C12.3125 5.39648 11.873 5.86719 11.7148 6.24414C11.5586 6.62109 10.9668 7.54883 10.9668 7.54883C10.9668 7.54883 11.3379 9.70117 11.4805 10.627C11.6211 11.5547 11.7266 12.7715 11.7051 12.8164C11.5703 13.0898 10.6641 15.293 10.6641 15.293C10.6641 15.293 10.5469 16.3613 10.6563 16.4707C10.7656 16.5801 11.4004 16.7246 11.4492 16.6504C11.5449 16.5078 11.543 15.9668 11.543 15.9668C11.543 15.9668 13.3047 13.5879 13.3613 13.4707C13.3828 13.4258 13.2852 12.7051 13.2852 12.7051ZM9.69532 12.875C9.68946 12.6387 9.34375 11.5176 9.28125 11.2656C9.21875 11.0137 9.08594 9.76953 8.91211 9.76953C8.74024 9.76953 7.94336 11.9609 7.86328 12.166C7.78516 12.3711 6.66992 14.7734 6.52735 15.0566C6.38672 15.3398 5.74219 16.5645 5.61719 16.7695C5.49219 16.9746 5.32618 17.3223 5.32618 17.3223L8.51758 19.3398L9.66992 19.209C9.66992 19.209 8.9961 17.3984 8.83789 16.9902C8.67969 16.582 8.49219 15.9219 8.49219 15.9219C8.49219 15.9219 8.85742 15.0469 9.09571 14.418C9.33594 13.7852 9.70313 13.1094 9.69532 12.875ZM4.94532 17.1816C4.95313 17.2109 4.99414 17.9473 4.97266 18.3867C4.95117 18.8281 4.86524 19.2695 4.86524 19.2695L3.57422 20.9492C3.57422 20.9492 1.23828 21.8535 1.09766 21.8965C0.957034 21.9395 0.912113 21.9551 0.912113 21.9551C0.912113 21.9551 0.619144 21.7773 1.4961 20.8203C2.62891 19.584 4.07813 17.8906 4.26172 17.6777C4.58789 17.2988 4.92383 17.0938 4.94532 17.1816Z" fill="#C0C0C0"/>
<path d="M7.77342 17.6934C7.6406 17.6797 7.47264 18.1231 7.38279 18.4531C7.31834 18.6856 6.90232 19.8633 6.85349 20.0918C6.80271 20.3223 6.5449 21.002 6.61521 21.0332C6.68553 21.0625 7.23045 21.1016 7.52146 21.041C7.81053 20.9805 8.44334 20.4727 8.44334 20.3535C8.44334 20.2344 8.1699 19 8.14451 18.8535C8.0742 18.4336 7.98045 17.7148 7.77342 17.6934ZM20.8418 19.4961C20.7246 19.4473 20.4258 20.7695 20.3633 21.2363C20.3008 21.7031 20.1347 22.5898 20.1777 22.6777C20.3027 22.9258 21.6347 22.7617 21.7636 22.5488C21.8008 22.4883 21.6133 21.4941 21.4785 21.0742C21.2949 20.5 21.1445 19.6231 20.8418 19.4961ZM23.1758 17.8301C22.9922 17.8379 22.7969 19.4414 22.6758 19.791C22.539 20.1875 22.082 22.0645 22.2715 22.2793C22.4609 22.4941 23.1855 22.3242 23.4551 22.2461C23.7148 22.1719 23.9394 22.0469 24.0019 21.9082C24.0644 21.7695 23.916 20.6504 23.7363 19.8691C23.5527 19.0781 23.4648 17.8164 23.1758 17.8301Z" fill="#367C2D"/>
<path d="M6.1465 21.7285C6.1465 21.7285 6.65236 21.9199 8.38479 22.0273C10.1172 22.1347 10.9688 22.125 10.9688 22.125L14.9258 21.5469L15.8242 20.125C15.8242 20.125 14.6289 20.0801 13.9942 20.0586C13.3594 20.0371 12.4121 20.0332 12.3692 19.916C12.3262 19.7969 13.4375 18.9902 13.75 18.8301C14.0625 18.6679 14.8164 18.582 14.9883 18.4004C15.1602 18.2168 17.3321 16.9922 17.5996 16.9824C17.8692 16.9707 18.709 17.4883 18.8692 17.4336C19.0313 17.3789 18.3106 15.4726 18.2149 15.1152C18.2071 15.084 17.8262 13.2265 17.8145 13.1914C17.7246 12.916 17.4492 12.2012 17.2754 12.2871C17.1035 12.373 16.8125 13.0293 16.5977 13.6855C16.3828 14.3418 16.2539 14.6875 16.1465 14.8476C16.0391 15.0078 14.791 15.8066 14.6172 15.9883C14.4453 16.1719 13.9278 16.5586 13.6153 16.6875C13.3028 16.8164 13.002 16.8164 12.7754 17.0215C12.5488 17.2265 12.2696 17.582 11.9571 17.914C11.6446 18.248 11.0098 19.0137 10.8008 19.2012C10.5918 19.3887 10.4043 19.5703 10.4043 19.5703C10.4043 19.5703 8.89455 19.998 8.38674 20.2441C7.88283 20.4922 6.01565 21.6953 6.1465 21.7285Z" fill="#C0C0C0"/>
<path d="M14.9453 20.709C14.8047 20.7207 14.6074 21.7754 14.5371 22.0098C14.4981 22.1426 14.1719 23.0508 14.2598 23.2031C14.4356 23.5156 15.8809 23.4316 15.9453 23.2676C16.0078 23.1035 15.5332 22.0059 15.4453 21.8027C15.3555 21.6035 15.1524 20.6914 14.9453 20.709Z" fill="#367C2D"/>
<path d="M21.834 10.1601C21.668 10.3262 21.6621 10.5898 21.8457 10.7402C22.0078 10.875 22.2754 10.7871 22.375 10.666C22.4746 10.5449 22.4629 10.2812 22.3301 10.1484C22.1973 10.0156 21.9336 10.0605 21.834 10.1601Z" fill="white"/>
<path opacity="0.5" d="M21.8887 12.6309C21.711 12.8262 21.7695 13.1172 21.9336 13.2246C22.0977 13.332 22.3438 13.3223 22.4649 13.1738C22.5723 13.041 22.584 12.7754 22.4199 12.6113C22.2774 12.4687 22.0039 12.5039 21.8887 12.6309Z" fill="white"/>
<path opacity="0.6" d="M16.7969 6.26171C16.7461 6.42382 16.8477 6.60741 17.002 6.63476C17.1641 6.66405 17.3301 6.61718 17.375 6.46288C17.4199 6.30663 17.3633 6.11132 17.1406 6.07226C16.918 6.03319 16.8223 6.17382 16.7969 6.26171Z" fill="white"/>
<path d="M18.4649 9.00585C18.4649 9.00585 18.6094 8.47459 18.7149 8.45702C18.8203 8.43944 19.0313 9.02733 19.0313 9.02733C19.0313 9.02733 19.5567 9.04491 19.5742 9.12694C19.5918 9.21092 19.2031 9.52538 19.2031 9.52538C19.2031 9.52538 19.3477 10.0176 19.2871 10.0801C19.2266 10.1406 18.7442 9.83006 18.7442 9.83006C18.7442 9.83006 18.3125 10.1953 18.2129 10.1289C18.1133 10.0625 18.2969 9.51366 18.2969 9.51366C18.2969 9.51366 17.8867 9.22069 17.8809 9.12108C17.8731 9.02147 18.4649 9.00585 18.4649 9.00585ZM6.5508 7.54295C6.5508 7.54295 6.74025 6.99803 6.85549 6.99217C6.96877 6.98631 7.13478 7.53709 7.13478 7.53709C7.13478 7.53709 7.69728 7.54295 7.73635 7.62499C7.78518 7.73045 7.37502 8.08788 7.37502 8.08788C7.37502 8.08788 7.50783 8.61913 7.44533 8.68358C7.37502 8.75389 6.88869 8.47459 6.88869 8.47459C6.88869 8.47459 6.38869 8.82225 6.28127 8.7285C6.18752 8.64647 6.38283 8.08202 6.38283 8.08202C6.38283 8.08202 5.91408 7.74022 5.93947 7.64452C5.97268 7.5117 6.5508 7.54295 6.5508 7.54295Z" fill="white"/>
<path opacity="0.5" d="M2.31641 9.00589C2.19922 9.00003 2.03906 9.11721 2.03906 9.31839C2.03906 9.46682 2.18164 9.58987 2.30469 9.58987C2.48242 9.58987 2.60547 9.4551 2.59961 9.30081C2.5918 9.09964 2.43945 9.01175 2.31641 9.00589Z" fill="white"/>
<path d="M3.60741 11.9199C3.61913 12.1426 3.73046 12.332 4.01952 12.3242C4.30859 12.3164 4.54687 11.873 4.27148 11.6133C3.99609 11.3535 3.59179 11.6211 3.60741 11.9199ZM1.68944 14.6445C1.82616 14.7969 2.15429 14.7363 2.1621 14.4687C2.16991 14.2246 2.04687 14.1094 1.81835 14.1406C1.59179 14.1719 1.52343 14.459 1.68944 14.6445Z" fill="white"/>
<path d="M8.96681 18.1348C8.85158 18.1738 8.709 18.6191 8.57423 19.0801C8.48829 19.3711 8.23829 20.2441 8.29884 20.2871C8.35939 20.3301 8.9629 20.3594 9.20118 20.2129C9.43947 20.0664 9.61329 19.9394 9.64454 19.8535C9.67579 19.7676 9.40236 19.0098 9.29689 18.7324C9.21486 18.5234 9.0879 18.0918 8.96681 18.1348Z" fill="#367C2D"/>
<path opacity="0.5" d="M6.93947 3.92188C6.76173 4.11719 6.82033 4.40821 6.98439 4.51563C7.14845 4.62305 7.39455 4.61329 7.51564 4.46485C7.62306 4.33204 7.63478 4.06641 7.47072 3.90235C7.32814 3.76173 7.05275 3.79688 6.93947 3.92188Z" fill="white"/>
</svg>
