<svg width="7" height="13" viewBox="0 0 7 13" fill="none" xmlns="http://www.w3.org/2000/svg">
<path fill-rule="evenodd" clip-rule="evenodd" d="M6.58917 5.91086C6.74539 6.06713 6.83316 6.27906 6.83316 6.50003C6.83316 6.721 6.74539 6.93292 6.58917 7.08919L1.875 11.8034C1.79813 11.883 1.70617 11.9464 1.6045 11.9901C1.50283 12.0338 1.39348 12.0568 1.28284 12.0577C1.17219 12.0587 1.06245 12.0376 0.96004 11.9957C0.857626 11.9538 0.764582 11.8919 0.686338 11.8137C0.608094 11.7354 0.546217 11.6424 0.504316 11.54C0.462415 11.4376 0.441331 11.3278 0.442292 11.2172C0.443254 11.1065 0.466242 10.9972 0.509916 10.8955C0.553591 10.7939 0.617076 10.7019 0.696667 10.625L4.82167 6.50003L0.696667 2.37503C0.544869 2.21786 0.460874 2.00736 0.462772 1.78886C0.464671 1.57036 0.552312 1.36135 0.706818 1.20685C0.861325 1.05234 1.07034 0.964699 1.28883 0.9628C1.50733 0.960901 1.71783 1.0449 1.875 1.1967L6.58917 5.91086Z" fill="white"/>
</svg>
