<svg width="24" height="24" viewBox="0 0 24 24" fill="none" xmlns="http://www.w3.org/2000/svg">
<g clip-path="url(#clip0_14_1983)">
<path fill-rule="evenodd" clip-rule="evenodd" d="M15.141 11.293C15.3217 11.4805 15.4232 11.7348 15.4232 12C15.4232 12.2652 15.3217 12.5195 15.141 12.707L9.68785 18.364C9.59893 18.4595 9.49256 18.5357 9.37495 18.5881C9.25734 18.6405 9.13085 18.6681 9.00286 18.6693C8.87486 18.6704 8.74793 18.6451 8.62946 18.5948C8.51099 18.5445 8.40337 18.4703 8.31286 18.3764C8.22235 18.2825 8.15077 18.1709 8.1023 18.048C8.05383 17.9251 8.02944 17.7934 8.03055 17.6606C8.03167 17.5278 8.05826 17.3966 8.10878 17.2746C8.1593 17.1526 8.23274 17.0422 8.3248 16.95L13.0964 12L8.3248 7.05C8.14921 6.8614 8.05205 6.6088 8.05424 6.3466C8.05644 6.0844 8.15782 5.83359 8.33655 5.64818C8.51527 5.46277 8.75705 5.35761 9.0098 5.35533C9.26254 5.35305 9.50604 5.45384 9.68785 5.636L15.141 11.293Z" fill="#7E7E7E"/>
</g>
<defs>
<clipPath id="clip0_14_1983">
<rect width="23.1351" height="24" fill="white"/>
</clipPath>
</defs>
</svg>
