<svg width="20" height="20" viewBox="0 0 20 20" fill="none" xmlns="http://www.w3.org/2000/svg">
<path d="M19 19L14.657 14.657M14.657 14.657C15.3998 13.9141 15.9891 13.0322 16.3912 12.0616C16.7932 11.0909 17.0002 10.0506 17.0002 9.00002C17.0002 7.94942 16.7932 6.90911 16.3912 5.93848C15.9891 4.96785 15.3998 4.08591 14.657 3.34302C13.9141 2.60014 13.0321 2.01084 12.0615 1.6088C11.0909 1.20675 10.0506 0.999817 8.99996 0.999817C7.94936 0.999817 6.90905 1.20675 5.93842 1.6088C4.96779 2.01084 4.08585 2.60014 3.34296 3.34302C1.84263 4.84335 0.999756 6.87824 0.999756 9.00002C0.999756 11.1218 1.84263 13.1567 3.34296 14.657C4.84329 16.1574 6.87818 17.0002 8.99996 17.0002C11.1217 17.0002 13.1566 16.1574 14.657 14.657Z" stroke="black" stroke-linecap="round" stroke-linejoin="round"/>
</svg>
