<svg width="21" height="21" viewBox="0 0 21 21" fill="none" xmlns="http://www.w3.org/2000/svg">
<mask id="mask0_2_1707" style="mask-type:luminance" maskUnits="userSpaceOnUse" x="1" y="2" width="18" height="17">
<path d="M1.93433 2.49582H18.601V18.5042H1.93433V2.49582Z" fill="white"/>
</mask>
<g mask="url(#mask0_2_1707)">
<path d="M18.5594 9.33748C18.4928 9.61165 18.348 9.86059 18.1427 10.0541L15.3927 12.7375C15.3649 12.7667 15.3424 12.8006 15.3261 12.8375C15.318 12.8759 15.318 12.9157 15.3261 12.9541L15.9761 16.7541C16.0302 17.0341 16.0011 17.3241 15.8927 17.5875C15.7924 17.848 15.6151 18.0718 15.3844 18.2291C15.1603 18.3946 14.8951 18.4954 14.6177 18.5208H14.5094C14.2652 18.5213 14.0247 18.4612 13.8094 18.3458L10.3927 16.5625C10.3573 16.542 10.317 16.5312 10.2761 16.5312C10.2351 16.5312 10.1949 16.542 10.1594 16.5625L6.74274 18.3541C6.48645 18.4883 6.19801 18.5489 5.90941 18.5291C5.62912 18.5053 5.3609 18.4043 5.13441 18.2375C4.90592 18.0743 4.72941 17.8486 4.62607 17.5875C4.52063 17.323 4.49175 17.0342 4.54274 16.7541L5.19274 12.9625C5.20486 12.9245 5.20486 12.8838 5.19274 12.8458C5.17978 12.8091 5.15999 12.7752 5.13441 12.7458L2.38441 10.0458C2.18463 9.85262 2.04314 9.60718 1.97607 9.33748C1.89502 9.06561 1.89502 8.77601 1.97607 8.50415C2.06769 8.23656 2.23269 8.00013 2.45224 7.82184C2.67179 7.64354 2.93705 7.53057 3.21774 7.49581L6.96774 6.94581C7.0051 6.94487 7.04076 6.93001 7.06774 6.90415C7.0995 6.87981 7.12518 6.84843 7.14274 6.81248L8.89274 3.32915C9.01191 3.07915 9.20024 2.86831 9.43441 2.72081C9.6124 2.60841 9.81217 2.53496 10.0206 2.50528C10.229 2.47561 10.4413 2.49038 10.6436 2.54863C10.8459 2.60687 11.0336 2.70728 11.1943 2.84324C11.355 2.9792 11.4851 3.14764 11.5761 3.33748L13.3094 6.80415C13.3303 6.84263 13.3587 6.87661 13.3927 6.90415C13.4231 6.92996 13.4613 6.94465 13.5011 6.94581L17.3094 7.49581C17.5861 7.53748 17.8461 7.65581 18.0594 7.83748C18.2686 8.01831 18.4269 8.25081 18.5177 8.51248C18.6061 8.77915 18.6211 9.06415 18.5594 9.33748Z" fill="#FFD233"/>
</g>
</svg>
