<svg width="21" height="21" viewBox="0 0 21 21" fill="none" xmlns="http://www.w3.org/2000/svg">
<path d="M10.6801 15.9892L14.0901 17.7808C14.2341 17.8566 14.3965 17.8904 14.5588 17.8785C14.7211 17.8666 14.8768 17.8094 15.0083 17.7134C15.1397 17.6174 15.2415 17.4864 15.3022 17.3354C15.363 17.1844 15.3801 17.0194 15.3517 16.8592L14.6992 13.0658C14.675 12.926 14.6854 12.7823 14.7294 12.6474C14.7734 12.5125 14.8497 12.3904 14.9517 12.2917L17.7101 9.60333C17.8276 9.49049 17.9111 9.34688 17.9509 9.18889C17.9908 9.0309 17.9854 8.86488 17.9355 8.70979C17.8855 8.55469 17.793 8.41677 17.6684 8.31175C17.5438 8.20672 17.3922 8.13883 17.2309 8.11583L13.4209 7.56833C13.2813 7.54745 13.1489 7.49292 13.035 7.40944C12.9212 7.32596 12.8294 7.21604 12.7676 7.08916L11.0276 3.61C10.9564 3.46272 10.8452 3.3385 10.7066 3.25157C10.568 3.16464 10.4078 3.11853 10.2442 3.11853C10.0807 3.11853 9.92041 3.16464 9.78186 3.25157C9.6433 3.3385 9.53206 3.46272 9.4609 3.61L7.7234 7.08916C7.66161 7.21594 7.56994 7.32579 7.45627 7.40926C7.34261 7.49273 7.21035 7.54732 7.0709 7.56833L3.31256 8.11583C3.15081 8.13797 2.99856 8.20517 2.8732 8.30976C2.74784 8.41435 2.65444 8.5521 2.60368 8.70726C2.55291 8.86243 2.54683 9.02874 2.58613 9.1872C2.62542 9.34566 2.70851 9.48986 2.8259 9.60333L5.5834 12.2917C5.68557 12.3904 5.76201 12.5127 5.80602 12.6478C5.85004 12.7829 5.86029 12.9267 5.8359 13.0667L5.1834 16.8583C5.15495 17.0185 5.17199 17.1835 5.2326 17.3345C5.29321 17.4855 5.39496 17.6165 5.52627 17.7126C5.65759 17.8087 5.81322 17.866 5.97548 17.878C6.13775 17.8901 6.30015 17.8564 6.44423 17.7808L9.85506 15.9892C9.98192 15.9207 10.1238 15.8848 10.268 15.8848C10.4121 15.8848 10.554 15.9207 10.6809 15.9892" stroke="#FFD233" stroke-width="1.5" stroke-linecap="round" stroke-linejoin="round"/>
</svg>
