<svg width="12" height="8" viewBox="0 0 12 8" fill="none" xmlns="http://www.w3.org/2000/svg">
<path fill-rule="evenodd" clip-rule="evenodd" d="M5.41074 0.910833C5.56701 0.754607 5.77894 0.666844 5.99991 0.666844C6.22088 0.666844 6.4328 0.754607 6.58907 0.910833L11.3032 5.625C11.3828 5.70187 11.4463 5.79383 11.49 5.8955C11.5337 5.99717 11.5567 6.10652 11.5576 6.21716C11.5586 6.32781 11.5375 6.43755 11.4956 6.53996C11.4537 6.64237 11.3918 6.73542 11.3136 6.81366C11.2353 6.89191 11.1423 6.95378 11.0399 6.99568C10.9375 7.03758 10.8277 7.05867 10.7171 7.05771C10.6064 7.05675 10.4971 7.03376 10.3954 6.99008C10.2937 6.94641 10.2018 6.88292 10.1249 6.80333L5.99991 2.67833L1.87491 6.80333C1.71774 6.95513 1.50724 7.03913 1.28874 7.03723C1.07024 7.03533 0.861231 6.94769 0.706724 6.79318C0.552217 6.63867 0.464577 6.42966 0.462678 6.21117C0.460779 5.99267 0.544775 5.78217 0.696573 5.625L5.41074 0.910833Z" fill="#606060"/>
</svg>
